<?xml version="1.0" encoding="UTF-8"?>
<svg xmlns="http://www.w3.org/2000/svg" xmlns:xlink="http://www.w3.org/1999/xlink" viewBox="0 0 240.7106478 154.1474654">
  <defs>
    <style>
      .cls-1 {
        opacity: .1;
      }

      .cls-2 {
        fill: url(#Dégradé_sans_nom_33-2);
      }

      .cls-2, .cls-3, .cls-4, .cls-5, .cls-6, .cls-7, .cls-8, .cls-9, .cls-10, .cls-11, .cls-12, .cls-13, .cls-14, .cls-15, .cls-16, .cls-17, .cls-18 {
        stroke-width: 0px;
      }

      .cls-19 {
        mix-blend-mode: overlay;
      }

      .cls-3 {
        fill: url(#Dégradé_sans_nom_39-2);
        mix-blend-mode: multiply;
        opacity: .43;
      }

      .cls-4 {
        fill: url(#Dégradé_sans_nom_39-3);
        mix-blend-mode: luminosity;
      }

      .cls-20 {
        opacity: .29;
      }

      .cls-21 {
        opacity: .58;
      }

      .cls-22 {
        opacity: .5;
      }

      .cls-23 {
        opacity: .74;
      }

      .cls-24 {
        isolation: isolate;
      }

      .cls-5 {
        fill: #f8b133;
      }

      .cls-6 {
        fill: #494064;
      }

      .cls-7 {
        fill: #29265b;
      }

      .cls-8 {
        fill: #1e1e1c;
      }

      .cls-9 {
        fill: #f5c274;
      }

      .cls-10 {
        fill: #fff;
      }

      .cls-11 {
        fill: #eb5935;
      }

      .cls-12 {
        fill: url(#Dégradé_sans_nom_31);
      }

      .cls-13 {
        fill: url(#Dégradé_sans_nom_33);
      }

      .cls-14 {
        fill: url(#Dégradé_sans_nom_37);
      }

      .cls-15 {
        fill: url(#Dégradé_sans_nom_39);
      }

      .cls-16 {
        fill: url(#Dégradé_sans_nom_12);
      }

      .cls-17 {
        fill: url(#Dégradé_sans_nom_19);
      }

      .cls-18 {
        fill: url(#Dégradé_sans_nom_17);
      }
    </style>
    <linearGradient id="Dégradé_sans_nom_39" data-name="Dégradé sans nom 39" x1="5.7118542" y1="83.8810796" x2="94.4158536" y2="83.8810796" gradientUnits="userSpaceOnUse">
      <stop offset="0" stop-color="#c8deea"/>
      <stop offset="1" stop-color="#fff"/>
    </linearGradient>
    <linearGradient id="Dégradé_sans_nom_39-2" data-name="Dégradé sans nom 39" x1="5.7118655" y1="54.623889" x2="52.623068" y2="54.623889" xlink:href="#Dégradé_sans_nom_39"/>
    <linearGradient id="Dégradé_sans_nom_12" data-name="Dégradé sans nom 12" x1="51.7141963" y1="80.7859724" x2="146.5424196" y2="80.7859724" gradientUnits="userSpaceOnUse">
      <stop offset="0" stop-color="#f8b133"/>
      <stop offset="1" stop-color="#e5352b"/>
    </linearGradient>
    <linearGradient id="Dégradé_sans_nom_19" data-name="Dégradé sans nom 19" x1="172.6250489" y1="28.3919222" x2="208.097629" y2="28.3919222" gradientUnits="userSpaceOnUse">
      <stop offset="0" stop-color="#da6328"/>
      <stop offset="1" stop-color="#d55027"/>
    </linearGradient>
    <linearGradient id="Dégradé_sans_nom_17" data-name="Dégradé sans nom 17" x1="97.2425875" y1="39.7741508" x2="130.8050391" y2="39.7741508" gradientUnits="userSpaceOnUse">
      <stop offset="0" stop-color="#ee9c27"/>
      <stop offset="1" stop-color="#e78a27"/>
    </linearGradient>
    <linearGradient id="Dégradé_sans_nom_37" data-name="Dégradé sans nom 37" x1="99.4872594" y1="97.6852088" x2="215.8013872" y2="97.6852088" gradientUnits="userSpaceOnUse">
      <stop offset="0" stop-color="#ed9c28"/>
      <stop offset="1" stop-color="#d55027"/>
    </linearGradient>
    <linearGradient id="Dégradé_sans_nom_39-3" data-name="Dégradé sans nom 39" x1="99.7976133" y1="109.0720161" x2="188.0158233" y2="135.7039285" xlink:href="#Dégradé_sans_nom_39"/>
    <linearGradient id="Dégradé_sans_nom_33" data-name="Dégradé sans nom 33" x1="95.7166433" y1="104.7057845" x2="217.7380121" y2="104.7057845" gradientUnits="userSpaceOnUse">
      <stop offset="0" stop-color="#642480"/>
      <stop offset="1" stop-color="#1e183a"/>
    </linearGradient>
    <linearGradient id="Dégradé_sans_nom_31" data-name="Dégradé sans nom 31" x1="95.5147615" y1="58.0947857" x2="214.0078279" y2="58.0947857" gradientUnits="userSpaceOnUse">
      <stop offset="0" stop-color="#462a5c"/>
      <stop offset=".176034" stop-color="#482e5c"/>
      <stop offset=".3630807" stop-color="#4f3b5d"/>
      <stop offset=".5138652" stop-color="#584b5e"/>
      <stop offset="1" stop-color="#1e1e1c"/>
    </linearGradient>
    <linearGradient id="Dégradé_sans_nom_33-2" data-name="Dégradé sans nom 33" x1="105.9769685" y1="78.2459782" x2="236.9446404" y2="78.2459782" xlink:href="#Dégradé_sans_nom_33"/>
  </defs>
  <g class="cls-24">
    <g id="Calque_1" data-name="Calque 1">
      <g>
        <g>
          <path class="cls-15" d="M81.0543296,32.20564c10.0149929,6.0895574,10.2784709,16.2883716,13.1265473,21.8879732C74.7907617,9.8776374,7.285571,42.4321263,5.7118542,76.6298256c9.0880924-.1468508,20.903861-3.2458255,34.0650389,7.1248,10.4220291,8.6490895,20.5158753,17.0563914,33.2383989,16.8259081-4.9546164,2.901688-10.9603141,3.6434569-18.0657077,2.125366,19.0939345,29.032026,44.0357202,36.5016539,76.8678543,14.8776325-4.8439457,7.9886289-12.1910562,13.7801127-21.2537374,18.065669,29.2311714-7.8546,52.7581327-21.811507,54.5511766-59.0193763-13.1069465,6.3826057-23.3639573,3.9144975-31.1721894-6.1587851-.020298,3.533987,1.5896054,6.8459747,4.9592326,9.9184141,0,0-43.5832353-49.1381846-57.8475915-48.2649946"/>
          <path class="cls-3" d="M61.3971835,32.6387018c-25.5047936-.0035385-54.6573883,21.6322235-55.685318,43.9703747.015622-.0002259.0315452-.0009787.0471296-.0012046,8.1115992-18.6988199,36.2409695-34.7111773,61.2879435-34.7122313,8.7115981-.0003388,17.0482299,1.9362286,24.0428725,6.3703637-7.0946613-11.0866364-18.0137468-15.6256838-29.6926276-15.6273025Z"/>
          <g class="cls-21">
            <path class="cls-10" d="M152.0654231,80.1130618c-7.0393863,10.1484706-17.5546933,18.1663457-29.5955287,25.2491171,7.5964199-6.5416198,13.1384782-14.0786952,15.6831689-23.0679315-25.8981116,29.5777098-22.3814447,36.7540717-48.5094973,13.8462777,7.2532903-.4264135-9.3870739-14.3722921-23.3286947-19.0080979-9.7861003.175679-24.0156701-2.6301211-28.5561822-3.9835634-16.036182-4.7800877-23.3109366.6322212-32.0259172,3.1970549-.0051907.0918834-.0166568.1835344-.0209178.2754179,9.0880924-.1468895,20.9038676-3.2458248,34.0650455,7.124762,10.4220291,8.6491282,20.5158034,17.0563845,33.238327,16.8259012-4.9545776,2.901688-10.9603141,3.6434956-18.0657077,2.1254047,19.0939345,29.0319873,44.0357921,36.5016608,76.8679262,14.8776007-4.8439457,7.9886676-12.1910562,13.7801127-21.2537374,18.0657077,29.2311714-7.8546387,52.7581327-21.8115457,54.5511766-59.0193763-4.7142552,2.2956912-9.0539266,3.4280421-13.0494613,3.4917253Z"/>
          </g>
          <path class="cls-16" d="M51.7141963,93.0677752s13.6560639,4.2557165,26.5263916,3.9014873c0,0-5.313438-15.3499321-11.9257165-19.8368354,0,0,16.6487725-.2190862,21.6079814,6.089468,0,0-5.7707272-17.2983569-15.8681472-21.8255716,0,0,12.8658045-6.0930798,20.4226941,9.8472344,0,0-3.6013302-20.6144159-20.3681792-28.3273126,0,0,14.0424863-.1718954,22.0716815,11.1773613l-.0000252.0000066c-1.095706-3.6528699-6.2426453-16.5969413-13.1265473-21.8879732,0,0,7.9398163,1.1460453,22.6979505,14.6720471,18.747482,17.1822856,21.2846873,19.9305881,24.2365973,22.2921162,2.95191,2.361528,18.5535423,52.0051181,18.5535423,52.0051181-49.8545042,10.7735321-59.4296509,12.0334748-78.6126137-2.975852,0,0-7.1064667-5.6684441-12.9212397-15.4564243,0,0,11.0101714,1.9949562,18.0657077-2.125366,0,0-10.8623613.581945-21.3600777-7.5495039Z"/>
          <path class="cls-6" d="M110.5623133,137.5536526c-.7796921,0-1.5048429-.4821943-1.7862263-1.2470115-.3396433-.9253421.0830515-1.9566677.9730657-2.3781229,5.6536974-2.6737613,10.3293709-5.7981078,14.1137906-9.4449348-12.9733824,6.7352258-25.0592298,8.9274126-36.0393771,6.5170608-12.8295918-2.8163123-24.4258075-11.9835825-34.4638784-27.2483177-.4251739-.6451983-.4177365-1.4831504.0185936-2.1209113.4350905-.6371411,1.2085847-.9501335,1.9696832-.7871295,3.2960275.7034583,6.3602547.8912538,9.16789.5609073-9.5769494-2.593189-17.826315-9.4399765-25.864953-16.1095049-10.4074641-8.2053607-19.7352591-7.5719383-27.9610728-7.0153696-1.7267267.1171398-3.3580062.2274618-4.9471402.2534929-.4945901.0024791-1.0313256-.200811-1.397-.5776415-.3656744-.3774503-.5602875-.8887746-.535496-1.4137343.8057232-17.512083,20.3314942-39.7277298,48.1128288-44.887457,13.7939805-2.5621996,25.6306735.2782844,34.2097658,7.8824516-1.446583-2.1054166-3.370402-4.0645634-6.0677152-5.7051398-.6036726-.3669139-.9296806-1.015831-.9148057-1.6740448-.0185936-1.0139716.7660568-1.8717569,1.7874658-1.9343554.1475093-.0092968.2987374-.0136353.4499654-.0136353,11.5354765,0,37.1946602,25.5618771,50.684945,39.9062285.125197-.6662711.6011934-1.225319,1.2594073-1.4490621.7685359-.2578314,1.6164046-.0049583,2.115953.6371411,7.4424028,9.6017409,16.8730825,11.4363106,28.8337329,5.6134113.6049122-.2937791,1.3189068-.2466752,1.8804339.122098.5627666.3706327.8862955,1.0096331.8540665,1.6814823-1.9659645,40.8247529-29.3915413,53.6276939-55.9580932,60.7664011-.1648634.0446247-.3322059.0656974-.4958296.0656974ZM131.8172903,115.6795084c.4797152,0,.9557116.1809778,1.321386.5330169.6408598.6173079.7685359,1.5971912.3061748,2.3582897-2.3713052,3.9102365-5.3388456,7.3928199-8.9559228,10.4905155,30.4141899-12.1992684,37.116567-31.3128811,38.5296815-49.4150013-8.7873407,3.5371247-16.5297205,3.1894241-23.1416087-1.0251278.1747799.1964725.326008.3656744.4487258.5051264.6718492.7573798.6334224,1.9077045-.0867702,2.6186003-.7214321.7121353-1.8717569.7338279-2.6204596.0514423-1.1032209-1.0065342-2.0452972-2.0496358-2.8225102-3.1262059-11.0904694-12.188732-32.8164845-34.4496233-46.0501775-42.0395355,2.8274685,3.798055,4.1438962,7.9648833,5.2830648,11.5732835.4450071,1.408776.8714206,2.7592919,1.3461775,3.9189135.1884153.3972835.3706327.7982857.5503709,1.2061056.4127782.9439357.0012396,2.0452972-.9296806,2.4859658-.9346389.439429-2.0452972.0601193-2.5113771-.8577853-.209488-.4115386-.4041012-.8404312-.5887977-1.2854383-7.1201136-14.9492635-21.3615803-21.5989587-39.2771446-18.2731815-22.2602715,4.1345994-42.553339,22.1319756-44.8192804,39.2486344.8503478-.0452445,1.7279663-.104744,2.6328554-.1661029,8.4712493-.5726832,19.0163061-1.2885373,30.5232724,7.7783274.0123957.0099166.1152804.0954472.1276761.1053638,10.2438403,8.4997595,19.976976,16.5272414,31.8979601,16.3115555h.0347081c.8515874,0,1.6015297.5664854,1.8333301,1.3889428.2342795.8336136-.1239574,1.7205288-.8714206,2.1580985-4.2926451,2.5132365-9.3129201,3.5272081-14.9616593,3.0264201,8.8641943,12.2538097,18.8154951,19.6590253,29.6233416,22.0315701,12.4440843,2.7283026,26.6136557-1.0678931,42.1306442-11.2881815.3198101-.2101078.6842449-.3136122,1.0474401-.3136122Z"/>
        </g>
        <path class="cls-10" d="M240.6347638,66.7271169c.7832348,4.534846-4.7132621,7.0752213-6.5195737,7.9099868-4.6780204,2.1618499-11.7692261,5.0566219-15.654421,6.6192097,1.2830132,2.7987135,3.6418517,9.2760427,2.8857903,17.8282972.3027899,2.3573161.4958204,4.5409352.5893671,6.6619869.8571436,19.4313788-5.3013352,32.4298801-18.8274735,39.7379406-11.3971705,6.1580982-26.8987503,7.3919405-43.1171156,8.1984668-4.6194871.2297184-10.0407813.4644605-15.2251261.4644605-12.3417715,0-21.3776678-1.3827254-28.4365242-4.3514061-7.0709588-2.9735522-12.4701033-7.7225889-16.1965199-14.172973-1.1571933.0828143-2.3070795.1333554-3.4452438.1333554-3.2911086,0-6.5481933-.3486118-9.6808282-1.036397-13.835398-3.037033-26.2264167-12.7521896-36.8271081-28.8723651-1.2816432-1.944919-1.2598739-4.4439633.0535096-6.3636118.0882186-.1290929.1810802-.2539234.278585-.3743391-5.0021228-3.1776956-9.6701719-7.0482001-14.2557112-10.852788-7.2390993-5.6927243-13.6480763-6.4615732-18.9637975-6.4617254-2.1430492,0-4.27529.14424-6.3449633.2842937-1.7738861.1203396-3.449354.2339809-5.142557.2617633-.0207797.0003045-.0505411.0005328-.0713208.0005328-1.5495719,0-3.0514951-.6318399-4.1230578-1.7360564-1.0934841-1.1287259-1.6782081-2.6752531-1.6044516-4.2383737.4492373-9.7628053,5.9392644-20.5530258,15.0626182-29.6041454,9.7058704-9.6289931,22.5472681-16.3242428,36.1587325-18.8522112,3.5154989-.6530002,6.9780972-.9841053,10.2917361-.9841053,5.1715573,0,10.0627027.810865,14.5545431,2.3898177.9192543-1.6329951,2.6211346-2.7705505,4.6241302-2.8932497.2260649-.0143098.4579146-.0212364.6896881-.0212364,2.4325949,0,5.369383.8540989,8.7962067,2.5451707.7308669-4.50341,1.994775-9.1624013,4.01307-13.8951492l1.3298247-3.1182489c.4185625-.9815173,1.2378003-1.736437,2.2502207-2.073403.383473-.1277228.7807991-.190747,1.1766029-.190747.6488899,0,1.2938217.1695106,1.8673567.5016813l31.5095601,18.2494477c3.5193047-2.2931502,6.0350946-3.9501981,6.5835112-4.3117496,1.0604497-.8001326,6.0206325-4.1882132,13.9580211-4.1878326,3.1953545.0001522,6.4741324.563716,9.7454508,1.6750112,2.3886759.81155,5.3387844,1.7661984,8.790498,2.8447637L198.7043746.9041072c.6811631-.5872358,1.5461467-.9041072,2.4328994-.9041072.190747,0,.3825596.0146904.5737633.0444518,1.0797832.1682927,2.0312347.8021877,2.60241,1.733849l1.7520408,2.8574751c9.4277421,15.3741614,9.8845149,31.4963159,8.494863,42.6156626.4681141,1.4086048.7686967,2.8713282.8953539,4.3612251l.6325249,7.4280956.231393,2.7172692c5.09468-.4063078,8.7315841-.5911939,11.5261873-.5911939,1.3380452,0,2.4609101.0430056,3.4327607.1316048,2.1154952.192726,8.5530918.7792007,9.356193,5.4286775ZM96.6879235,131.9485047c.5163717,0,1.0414968-.0385148,1.5620549-.0569349-2.3582295-5.3757768-3.7553408-11.7212729-4.1509163-19.0447089-1.4501642-5.2925058-2.1454088-11.3032432-2.0669331-17.874043.0165172-1.3830298.7979252-2.6432082,2.029484-3.2726885.0139292-.0071549.1039746-.053129.2655691-.1315286-.0971242-.3108582-.1544396-.6369397-.1676077-.9707849-.0004567-.0126353-.0009134-.0254228-.001294-.0380581l-2.3190297-27.2298554c-.0047192-.0551081-.0082205-.1103684-.0104279-.1656287-.013777-.3406957-.0313598-1.927869.665331-4.153352-2.1313274-6.9506954-3.7828187-16.0253348-2.8283226-26.0880376-3.1725197-1.7067517-6.0028975-2.7126261-8.2781604-2.7126261-.1511666,0-.3024093.0043386-.4499224.0136248-1.0214022.0625674-1.8060832.9203961-1.7875109,1.9343389-.0148426.6582522.3111627,1.3071421.9148396,1.6740217,2.6973268,1.6406068,4.6211616,3.5997595,6.0676723,5.7051312-6.5154634-5.7750058-14.9096248-8.8024482-24.61344-8.8024482-3.0733404,0-6.2782856.3037033-9.5962632.9200155C24.1416535,36.8147012,4.6158908,59.0303313,3.8102017,76.5424422c-.0248139.5248967.1698151,1.0362448.5354769,1.4137046.3634545.3745674.8959628.5776452,1.3880535.5776452h.0089817c1.5890762-.0260317,3.2203967-.136324,4.9470908-.2534667,2.127826-.1440117,4.3280385-.2931232,6.6028447-.293047,6.5195737.0001522,13.6429004,1.2254695,21.3582582,7.3084411,8.038623,6.6694463,16.2880115,13.5162432,25.8649412,16.1095192-.8957345.1053447-1.8175006.1580171-2.7646896.1580171-2.021644,0-4.1586801-.239918-6.4031921-.7189928-.1341166-.0287719-.2685377-.042625-.4015125-.042625-.6216403,0-1.2097134.3049212-1.5681442.8298179-.4363737.6377008-.4438331,1.4757393-.0186484,2.1208995,10.0381172,15.2646303,21.6343314,24.4320553,34.4639311,27.2483516,2.8803861.6322205,5.8356704.9477979,8.8643306.9477979ZM108.7760761,136.306609c.2814013.7648147,1.0065595,1.2470864,1.7862169,1.2470864.1636496,0,.3309529-.0211603.4958204-.0657643,26.5665796-7.1387783,53.9921295-19.9416612,55.9581327-60.7663877.0321971-.6718008-.2912964-1.3108717-.8540989-1.6814811-.3165669-.2079492-.6815437-.3135984-1.0481189-.3135984-.2836848.0000761-.5684352.0633286-.8323297.1915081-4.535531,2.2080524-8.7063897,3.3148568-12.544012,3.3148568-6.2822436,0-11.6695901-2.9676151-16.2896861-8.9282682-.3694676-.4748884-.9293017-.736804-1.5067946-.736804-.2033823,0-.409048.0325016-.6091573.099636-.6581761.2237053-1.1342062.7827781-1.2594173,1.4490986-9.8684544-10.4932155-26.2436189-26.9779872-38.843424-35.0792537-.5943146,9.2507721,1.0921901,17.5888359,3.1947456,24.0453094-.9381311,2.3099719-.8725952,3.9312452-.8725952,3.9312452l2.3363842,27.4333138-.0109607.0073071s.0106563.0059371.0121786.0066982l.0006089.0060893.0090578-.0009134c.0718536.0395804.7167093.3859087,1.8664433.8424532-.1819175.7150348-.3244069,1.4497075-.4823478,2.1766164-2.2572995.8837081-3.5252418,1.5319129-3.5252418,1.5319129-.0857829,7.1821645.7980014,12.8412454,2.0411298,17.2267516.3718272,7.653171,1.8136948,14.0826993,4.3481331,19.3474988,6.9108105-.8289045,14.1605661-3.1854594,21.7162323-7.1078751-3.7844172,3.6467231-8.460154,6.7709852-14.1138308,9.4447921-.8900257.421531-1.3126985,1.4529044-.9730684,2.3781719ZM104.8731462,135.0701789c-.2334481.0383625-.4646128.0657643-.6973759.1007777.2321542.3568324.4617204.7161004.7065098,1.0595363-.0412549-.3897145-.0470398-.7785156-.0091339-1.1603141ZM232.5522979,71.2551885c6.6217215-3.0603246,5.5965897-5.5898153-1.6117588-6.2465452-.8657447-.0789324-1.8993254-.1163054-3.094729-.1163054-3.5735755,0-8.5958691.3338453-14.9225645.8901019-.3747196-4.4004249-.7949567-9.3351088-1.1797237-13.8536659-.1319092-1.5514748-.485088-2.9684524-.9947615-4.2640248,1.5111332-11.0101962,1.1257574-26.42919-7.8592934-41.0813901l-1.7521169-2.8577035-28.8614805,24.8865447c-3.9141951-1.2099418-7.7082791-2.4185135-10.8568983-3.4882494-3.1650603-1.0752163-6.0318977-1.4768049-8.5470787-1.4769571-7.4242898-.0003806-11.7933549,3.4976116-11.7933549,3.4976116,0,0-3.5997595,2.3760407-8.6345361,5.6474352l-33.4902537-19.3965937-1.3298247,3.1182489c-2.0851249,4.8895471-3.3251325,9.7017601-3.9680854,14.3340347,9.6868414,5.7802578,22.6555813,17.1815386,38.7810088,34.1134163.4902639-.133736.9949138-.2014032,1.5043589-.2014032,1.7767024,0,3.4214194.804319,4.516502,2.2119343,3.8873262,5.0152148,8.2312729,7.4532139,13.2799787,7.4532139,3.2230608,0,6.8826475-.9860082,10.8806465-2.9323734.7730353-.3754047,1.6358876-.5739155,2.4956952-.5739916,1.1181457,0,2.2034093.3245591,3.1426061.941328,1.6772947,1.1045971,2.6593449,3.0374136,2.5631341,5.0448239-.947874,19.6830186-7.5023088,34.6276568-20.0380242,45.6877852-11.7935832,10.4055297-26.8958579,15.391592-38.7284126,18.5711144-.4853164.1313764-.9869977.1980541-1.4910386.1980541-.3946621,0-.7786679-.0551081-1.1557471-.1342688,2.4092273,2.0906052,5.1949249,3.8003254,8.3673685,5.1344887,7.5447055,3.1729764,16.8728878,4.0600336,26.992297,4.0600336,4.8670928,0,9.9170926-.205209,15.0400878-.4598936,15.7746083-.7844527,30.8207093-1.9682105,41.5311602-7.7551666,12.1445546-6.5616659,17.6644192-18.4342576,16.8764652-36.2961221-.101615-2.3055571-.3226562-4.5514393-.6157794-6.7585022,1.0493368-10.4796668-3.1092672-17.5057933-3.1092672-17.5057933-.5851046-.0509217-1.1417417-.0906543-1.7096441-.1345733-.1779595-.4088197-.3508192-.8209884-.5372275-1.2240233,1.2681706-.7326176,1.9852605-1.3126985,2.0777416-1.3896519.0994076-.0392759,11.6391436-4.5959672,18.2325499-7.6429714Z"/>
        <g>
          <path class="cls-17" d="M191.5271404,37.9463799c4.7809736,1.5217505,9.7356648,3.4788145,13.574459,7.1008176.8676847.8186813,1.6845753,1.7189812,2.4272363,2.6870244,3.0016683-25.2271144-6.8545964-38.6845993-6.8545964-38.6845993l-28.0491903,23.1520046c6.4128486,1.5677041,12.7518866,3.787225,18.9020915,5.7447527Z"/>
          <g class="cls-19">
            <path class="cls-9" d="M181.525096,34.7227706c8.2231208-9.8241978,18.0749525-21.9318935,18.0749525-21.9318935l-1.4940843-2.1928745-25.5464718,21.5877979c3.0089974.7334086,6.0010028,1.6080082,8.9656035,2.5369701Z"/>
          </g>
          <path class="cls-6" d="M176.0530623,33.0944069l23.5469862-20.3035298c5.9419522,11.3716011,6.4602557,23.195868,5.4777067,32.2358124.0077054.0072382.0161838.0132636.0238441.020508,1.9927146,1.8801756,3.7434794,4.1675958,4.8490842,6.801046.012865.0306682.022666.0625122.0353567.0932547,2.1789537-11.0275105,3.1126378-28.7329838-7.1314609-45.4387848l-1.7524084-2.8576965-32.1596545,27.7303717c2.3794404.4739499,4.7512957,1.0635064,7.1105459,1.7190184Z"/>
        </g>
        <g>
          <path class="cls-18" d="M102.360757,57.8840082c3.4027475-4.0132129,7.3652144-7.4931156,11.4366335-10.6504395,5.3494728-4.1484968,11.1646294-7.5517266,17.0076486-10.8922046l-30.4182703-17.7905181c-5.2613979,18.7405907-2.9251383,33.533993-.1716288,42.4466096.5640709-1.0436822,1.2621071-2.0714672,2.145617-3.1134474Z"/>
          <g class="cls-19">
            <path class="cls-9" d="M130.4327254,36.5541618l-28.5266796-14.5216291,22.8991777,17.8063194c1.8623866-1.1179075,3.7426526-2.2058713,5.6275019-3.2846903Z"/>
          </g>
          <path class="cls-6" d="M102.360757,57.8840082c.0209668-.0247654.0432042-.048329.0642164-.0730443-2.9766496-8.9053413-5.293529-22.0162159-.5189276-35.7784312l26.7939959,15.5179445c2.0187264-1.1654289,4.0460748-2.3150642,6.0659809-3.4739543l-35.8473867-20.7616657-1.329752,3.1182386c-8.4940291,19.9181977-3.2081758,38.6304257,1.0702544,48.6119245.6513323-2.5469992,1.7150828-4.8181106,3.7016185-7.161012Z"/>
        </g>
        <g>
          <path class="cls-14" d="M209.2073212,73.0213164c-1.4333961-2.2877023-2.6593103-4.7480775-3.9796383-7.1356894-3.176653-1.6219614-6.2925896-4.1742826-8.1362016-5.4611597-3.8920946-2.7167338-7.9644222-5.4844338-11.690459-8.6033536-1.5514079-.5224388-3.0788823-1.0810759-4.5652256-1.5857252-1.9701691-.6689157-3.9812256-1.1885745-5.993218-1.7016445l-3.9969646,2.5820486-31.5600037,1.5693249-1.9820145-1.0939676c-2.2277233,1.1913312-4.4181204,2.47809-6.6289319,3.7500328-4.2614663,2.4517725-8.5748073,4.8057945-12.7036667,7.5233473-4.175391,2.7481328-7.7732263,5.8297133-11.0042161,9.8364738-.9375751,1.162686-1.8488109,2.3478338-2.7588835,3.5325741,1.0324972,2.2310287,1.7873271,3.4030978,1.7873271,3.4030978l-6.5079654,15.6985674.7437575,16.8602037,4.2984862,18.9668129,16.7104524,14.9074441,47.6776526.7669697,32.0550947-7.0740878,11.3236699-10.9144881,3.5050144-27.2706738-7.7711689-25.492171c.4206912-1.0362543.8090541-2.0556694,1.177103-3.0639364Z"/>
          <path class="cls-4" d="M176.2780857,119.2220842s-2.5323774-10.1087559-8.2318894-11.347626l-9.1797768,21.4992652-10.6721336-19.8677258c-5.5655008,1.7990242-7.5569959,11.4883293-7.5569959,11.4883293-33.5875447-14.3136851-37.9936245,5.0860133-37.9936245,5.0860133l8.518813,14.1901696,18.8361316,6.3702804,29.6450697.3526103,29.484258-3.292823,18.1928803-8.2115524,7.2323149-14.9733963s-6.0946116-18.8775503-38.2750472-1.2935447Z"/>
          <path class="cls-6" d="M210.2508453,76.319969c.1041221-.198696.2811605-.5465936.5110255-1.0274621-1.2893129-1.6999785-2.37503-3.5680419-3.412258-5.4779193-.1649366.4142158-.3254248.8087837-.4737615,1.1585501-2.4431124-3.420479-5.2552919-6.5591212-8.4445226-9.369335-.5981837-.5271391-1.2131331-1.0327193-1.8375249-1.5257944-.7021703-.4891076-1.4083817-.9812605-2.1178847-1.4759464-.3992696.9657722-.7177695,1.9377159-.8087582,2.9160754-.0787039.8459563-.0083309,1.7028777.1288972,2.5625675.2761126.3038903.5576383.6017683.8189843.9220742.3981185.4879461.7669471,1.008062,1.1062869,1.5434776.39155.3060907.7331829.6906226,1.0523241,1.1327055,9.5659658,9.3049314,15.5065394,22.5373034,16.2067219,38.4097081,1.4505324,32.8820514-20.2259783,36.4249696-53.4612154,38.0775957-33.2355997,1.6526441-55.1291169.2762505-56.5796493-32.6058009-.756107-17.140154,4.7831929-31.8803432,14.854158-42.2901696.5398342-.9778557.9760328-2.0219727,1.2584469-3.196128.0887881-.3691787.1656576-.7397623.2336631-1.1115032-.2922222-.7926536-.5676656-1.5931832-.8837926-2.3706149-.1426828.0927924-.2887512.1788614-.4309886.2724806-1.9813934,1.3040829-3.8290781,2.6878139-5.5728296,4.2053106-2.0929163,2.3668637-3.9751403,4.8820108-5.6327619,7.5405046-.160971-.3207524-.3291757-.6664649-.5003579-1.0240649-1.2223522,1.5480025-2.4135811,3.1218747-3.6241606,4.6751848.4006935.7563968.7633137,1.4035198,1.0659755,1.9230804-4.4327058,9.2890686-6.4801151,19.9784611-5.9659335,31.6344196.7879413,17.8618059,7.3292557,29.1346642,19.9979557,34.4623849,11.1734726,4.6989122,26.2578651,4.3843181,42.0323822,3.5999284,15.7745172-.7843897,30.820573-1.9680356,41.5311108-7.7551328,12.144589-6.5615644,17.6645196-18.4341695,16.8765783-36.2959754-.4873635-11.0480208-3.1940776-21.0001631-7.928111-29.5102012Z"/>
          <g>
            <g>
              <path class="cls-6" d="M188.0617047,92.8671414s6.2186348,2.4567082,5.6832758,9.3322999c-.535359,6.8755917-7.8219176,7.3696277-9.7288692,7.596162s-9.2630799-.8565021-7.5844299-8.9743429c1.6786499-8.1178408,8.3616769-8.7135771,11.6300234-7.9541191Z"/>
              <ellipse class="cls-5" cx="184.9369412" cy="101.2060503" rx="4.8032008" ry="5.2798458" transform="translate(-1.7120551 3.1933521) rotate(-.9847579)"/>
              <ellipse class="cls-8" cx="184.9550584" cy="101.2051494" rx="2.9654332" ry="3.2597076" transform="translate(-1.712037 3.1936633) rotate(-.9847579)"/>
              <g class="cls-23">
                <ellipse class="cls-10" cx="182.9132641" cy="99.8354363" rx="1.4816197" ry="1.6286481" transform="translate(-1.6887981 3.1583699) rotate(-.9847579)"/>
              </g>
            </g>
            <path class="cls-6" d="M124.2586565,108.205297c.0950195-.2380681.088438-.2235348-.0197445.0436.0489058-.1076069.099893-.2142183.1529616-.3198342.0789028-.1566582.1622374-.3111638.2497904-.4631567.1152754-.2001194.2386079-.3956694.3688899-.5863496.0721601-.1056132.3413042-.5561398.0534802-.0930237.1987541-.3198004.5265416-.6159079.7934739-.8757004.11986-.116654.2427082-.2303149.3682324-.34085.1111326-.0978621.5605044-.6057172.1887965-.1682689.4113623-.484116,1.2727753-.8020269,1.8280184-1.0803135.2279982-.1012798.1959225-.0892863-.0962271.0359805.098989-.0401172.1985706-.0787052.2987448-.1157638.1493075-.05523.2999053-.1070583.4515962-.1553527.3815805-.121485.7704902-.2204841,1.1632265-.2985626.1722735-.0342491.3588372-.0856816.5355082-.0928753-.6154683.0250605.181378-.0078762.2968447-.0154636.3897187-.0256089.780462-.0310872,1.1707505-.0165613.2101828.0078226.420036.0211115.6294823.0404928.1197735.0110887.2393444.0240469.3587127.0388745l-.2430878-.0306316c.3920273-.0142763.8603884.1610372,1.2401462.2627981.4131775.1107161.8112655.254082,1.213679.3968566.2377131.0955193.2275581.0897365-.0304651-.0173485.0844942.0369211.1684098.0751054.2517469.1145527.1957096.091434.3891483.1875611.579717.2893092.384936.2055244.759205.4308475,1.1207091.6752685.1566511.1059153.3096076.216787.4624711.328062-.4228572-.3078137.2147929.1829903.286494.2441855.8983023.76668,2.3258942.9478205,3.1959759,0,.7743355-.8435196.9602115-2.376458,0-3.1959759-3.4198285-2.9187434-7.8226315-4.2640941-12.2702244-3.3798848-4.1079877.8166937-7.4290542,3.7172514-8.9580405,7.5743968-.4367214,1.1017089.477149,2.5291106,1.5784006,2.7799405,1.3026839.2967098,2.3123009-.3986949,2.7799405-1.5784006h0Z"/>
          </g>
          <path class="cls-13" d="M214.4539759,80.3798251c-32.7792462-2.85301-37.967086,5.3547084-49.1749827,8.7315968-11.2079052,3.3768111-18.1633332,1.9906508-18.1633332,1.9906508-26.8721435-9.9459361-51.3932742,2.6485455-51.3932742,2.6485455-.2694762,22.5888292,9.0351066,30.1630528,9.0351066,30.1630528,20.1058048,13.552168,37.5274089-.6513898,41.7798691-5.4145159,4.2524686-4.7630487.7367413-19.4172389,10.7165607-20.5109993,9.9795099-1.0937265,11.7351308,16.2599635,14.5220548,18.8191844,2.7869239,2.5592209,29.8255108,15.1128667,40.5714441-3.3722503,10.7456237-18.485083,2.1065549-33.0552648,2.1065549-33.0552648ZM142.5514817,102.8222252c-.4186296,8.1624434-2.3991877,18.4058953-18.0325284,19.5224161-15.6333322,1.1165982-20.3140922-5.6514078-20.711737-20.169914,0,0,3.1425152-7.2674306,18.0165187-8.7782257,14.874012-1.5107177,21.1460667,1.2633141,20.7277467,9.4257235ZM194.1076002,116.0226718c-15.5043769,2.2960864-19.6565787-7.2752321-21.8328879-15.1532774-2.1763092-7.8780453,3.3457063-11.9447527,18.1941681-13.6914571,14.8478427-1.7466365,19.4898257,4.6675564,19.4898257,4.6675564,2.7563986,14.2599933-.3473396,21.881237-15.8511059,24.1771781Z"/>
          <g>
            <g>
              <path class="cls-6" d="M141.9851704,127.2254621c-.542401,3.6966737.9167805,7.4020372,3.8897993,9.6989801,2.8018868,2.164727,6.5499866,3.0351374,10.037271,2.5053604,2.0259513-.307776,3.7051098-1.3413061,4.9409064-2.9575789.621789-.813225.152889-2.2161732-.6991374-2.6663376-1.0304597-.5444389-2.0025519-.1690142-2.6663376.6991374.2568835-.3359726-.1916035.1768949-.2499189.231829-.1092084.102876-.3863927.2962763-.1097485.1080991-.1787008.1215548-.3587787.2375296-.5494822.3397036-.1381703.0740282-.4382267.1995338-.1215052.0749819-.3548422.139543-.7213156.2466856-1.0943142.3253482-.0952529.0200881-.7873516.1004848-.2963771.0582857-.1648558.0141693-.329228.0306187-.4945051.0394918-.3828826.0205554-.7668446.018052-1.1496332-.0032221-.2379006-.0132217-.4743789-.0375739-.7115126-.0597474-.4662758-.0435997.2075388.0505565-.2134886-.0310122-.425196-.0823764-.8481377-.1618362-1.2663703-.2763504-.238599-.0653296-.4752237-.1379241-.709194-.2182862-.1170708-.0401795-.2334422-.0822917-.3491142-.1263367-.1930305-.0774059-.2301857-.0911954-.1114657-.0413683.1183298.0509217.0823654.0341359-.1078935-.0503575-.1125881-.0520767-.2241966-.1061745-.3348255-.1622934-.1940495-.0984947-.3845609-.20345-.571709-.3144682-.1879427-.1114896-.3722269-.2287847-.5520794-.352947-.1032809-.0712729-.2050745-.1446101-.305381-.2200116.1208367.0919885.1288517.0954384.0240449.0103495-.3221829-.2741511-.6273882-.5633821-.9080471-.8802737-.0518835-.0585816-.4195732-.5364527-.1964975-.2274387-.1224049-.1695605-.2401072-.3418348-.3511818-.5190433-.1115823-.1780184-.2170882-.3596061-.3156805-.5451595-.0331656-.0624186-.2848967-.5811087-.2125816-.4195417.0714823.1597064-.1381052-.3738325-.1611396-.4430392-.0667625-.2005881-.1255047-.4035329-.1767871-.6086028-.0513433-.2053132-.0920713-.4119426-.1299813-.6200825.0753533.4137175-.016486-.2016018-.0217861-.2909797-.0125184-.2111051-.0166566-.4224262-.0107191-.6338581.002206-.0785523.0768128-.8100021.0147602-.3870897.1473373-1.0041607-.2485913-2.1438642-1.3611234-2.3972635-.9243526-.210538-2.2389987.282487-2.3972635,1.3611234h0Z"/>
              <path class="cls-6" d="M157.950228,137.2654626c3.4411686,2.7084784,8.6908053,2.5333768,12.2589775.1068376,3.6718509-2.497046,5.4260168-6.8799647,4.7557973-11.2277603-.155809-1.0107521-1.4762339-1.6591813-2.3972635-1.3611234-1.1001581.3560263-1.5280952,1.3140973-1.3611234,2.3972635-.0637759-.4137219.0182137.2117677.0238288.2962143.0140748.2116747.0209234.4236837.0192768.6358465-.0014093.1815793-.0082885.3631971-.0203925.5443761-.0074003.1107716-.0571.5544183-.0082264.2035004-.0582098.4179531-.1520182.8334839-.2690431,1.2388192-.0501504.1737043-.1050544.3461115-.1645355.5168455-.0297726.085459-.1985047.5194209-.0665238.2060217-.1618296.3842775-.3586866.7575243-.573649,1.1146806-.0917014.1523602-.1875693.3023038-.2875267.4493812-.0532114.0782952-.3245969.4369494-.1151944.1738737-.2535542.3185441-.5316075.619173-.8289005.8973632-.1342781.1256499-.2731237.2448875-.413494.3635975-.1767973.1430979-.18932.1530087-.0375681.0297326-.0731644.053484-.1473851.1054483-.222662.1558929-.3225909.2193783-.6592734.4181606-1.0078344.5934732-.025372.0127611-.5537433.2608546-.1856375.1004658-.1904394.0829771-.3886954.151181-.5856265.2168611-.3659419.1220484-.7392612.2222418-1.1174449.2985301-.1740807.035116-.3496143.0665706-.5254825.0913822.4340631-.061238-.1906198.0069474-.2770986.0123108-.3840646.0238197-.7693597.0252172-1.1535634.0033152-.1773244-.0101086-.3540144-.026206-.5305976-.0449135.4404892.0466661-.2161587-.0419778-.304512-.0600046-.4060181-.0828404-.8140585-.1903071-1.1992678-.3452822.3168409.1274695-.1740238-.0932506-.2345392-.1262319-.0635252-.0346217-.6389891-.4142688-.4141442-.2372977-.7993047-.6291176-1.9865334-.8382472-2.7560289,0-.6444266.7020038-.8555008,2.0826805,0,2.7560289h0Z"/>
              <path class="cls-6" d="M157.0127095,129.6236312c-.204642,1.6212897-.1985266,3.2603473.0177517,4.8801138-.0101217.2683112.0458254.5185896.1678413.750835.0785933.2416022.2129104.450662.402951.6271794.3380055.3380055.8925657.5925356,1.3780145.5707923.5040077-.0225746,1.0267401-.1881329,1.3780145-.5707923.322556-.3513753.6371857-.8807761.5707923-1.3780145-.2162782-1.6197659-.2223938-3.2588235-.0177517-4.8801138.0579496-.4591091-.259558-1.0667802-.5707923-1.3780145-.3380055-.3380055-.8925657-.5925356-1.3780145-.5707923-.5040077.0225746-1.0267401.1881329-1.3780145.5707923-.1015743.1314715-.2031487.2629429-.304723.3944144-.1762861.3039581-.2649759.6318248-.2660692.9836001h0Z"/>
              <path class="cls-6" d="M169.3082391,122.3979916c.1702856,3.8601964-6.5168228,9.5543019-9.8438525,9.7197388-3.5813699.178084-10.4961871-5.0680045-10.656422-8.7003603-.2049434-4.6458516,6.2612766-6.4299997,9.9808145-6.6149542,3.6033657-.1791778,10.3446689,1.6332458,10.51946,5.5955756Z"/>
            </g>
            <g class="cls-20">
              <path class="cls-10" d="M166.2787643,120.2905286s-8.9155674-2.2967565-15.7494347,1.8487308c0,0,8.8585938-4.246167,15.8432419.2777812,0,0,1.2033088-.9731961-.0938072-2.126512Z"/>
            </g>
          </g>
        </g>
        <g>
          <path class="cls-12" d="M98.0448508,92.6231755l-2.5284269-29.6899561s-.3699904-7.5138743,9.9296349-13.3419929c10.2996253-5.8281186,35.597495-22.5272592,35.597495-22.5272592,0,0,7.8329474-6.2694978,20.3402347-2.0206143,12.5072873,4.2488835,35.187565,10.6904717,35.187565,10.6904717,0,0,14.1130953,4.0893613,15.1371599,16.1143985,1.0240645,12.0250372,2.2993147,26.9996117,2.2993147,26.9996117l-115.9629771,13.7753406Z"/>
          <path class="cls-10" d="M105.9769685,91.6809124l-2.0540736-26.1393128s-.3234271-6.5302119,8.7910708-11.601423c9.1144979-5.0712111,31.5026978-19.5991914,31.5026978-19.5991914,0,0,6.9325977-5.4534067,17.9948811-1.7678053,11.0622834,3.6856014,31.1228939,9.2710855,31.1228939,9.2710855,0,0,12.4829319,3.5460378,13.3826501,13.996596.8997182,10.4505582,1.9789989,22.9868003,1.9789989,22.9868003l-102.7191189,12.8532507Z"/>
          <g class="cls-1">
            <path class="cls-8" d="M117.6140349,64.8607805s-.3234209-6.530187,8.7911006-11.6014334c9.1144773-5.0711943,31.5026699-19.5991527,31.5026699-19.5991527,0,0,.9804696-.7707902,2.7913207-1.5369762-10.1762756-2.7342574-16.4824619,2.2177698-16.4824619,2.2177698,0,0-22.388239,14.5279607-31.5027163,19.599155-9.1145214,5.0712464-8.7910542,11.6014311-8.7910542,11.6014311l2.0540748,26.1393384,13.6344632-3.6199243-1.9973968-23.2002076Z"/>
          </g>
          <path class="cls-11" d="M138.5057826,42.2321157l7.8092749-.9643079,7.6362563,9.5380527,5.0866949-11.1091132,7.8092749-.9643079,3.2927854,26.6660325-7.3517261.9078087-1.8909497-15.3135173-5.5301871,11.279447-.1525163.0188331-8.0608686-9.52377,1.8815332,15.2372592-7.2367863.8936157-3.2927854-26.6660325Z"/>
        </g>
        <g>
          <path class="cls-2" d="M105.9769685,91.6809124s43.8822209-19.7313065,71.4485917-22.4697707c27.5663707-2.7384641,46.2718144-4.9398875,53.4800649-4.2831189s8.2333572,3.1862137,1.6115539,6.2465017c-6.6218033,3.060288-18.2417164,7.6467232-18.2417164,7.6467232l-108.2984941,12.8596646Z"/>
          <g class="cls-22">
            <path class="cls-7" d="M98.0448508,92.6231755l119.6931613,8.9997186s.0354116-.9425301-.2347257-3.1579235c0,0,1.7959673-9.0887904-3.0493105-18.0851455l-2.2120026-.0920484,2.0334893-1.4665288-116.2306118,13.8019276Z"/>
          </g>
        </g>
      </g>
    </g>
  </g>
</svg>